# xmcd
#
# Track frame offsets:
#	150
#	22441
#	38136
#	49793
#	72102
#	87603
#	119827
#	147353
#	173866
#	196157
#	214953
#	228365
#	256843
#	295705
#
# Disc length: 4175 seconds
#
# Revision: 0
# Processed by: cddbd v1.5.1PL2 Copyright (c) Steve Scherf et al.
# Submitted via: dBpowerAMP V4.0
#
DISCID=d8104d0e
DTITLE=ana - alby
DYEAR=1900
DGENRE=Acapella
TTITLE0=alby
TTITLE1=b
TTITLE2=c
TTITLE3=d
TTITLE4=e
TTITLE5=f
TTITLE6=g
TTITLE7=h
TTITLE8=j
TTITLE9=k
TTITLE10=ds
TTITLE11=bn
TTITLE12=m
TTITLE13=t
EXTD=
EXTT0=
EXTT1=
EXTT2=
EXTT3=
EXTT4=
EXTT5=
EXTT6=
EXTT7=
EXTT8=
EXTT9=
EXTT10=
EXTT11=
EXTT12=
EXTT13=
PLAYORDER=
